<svg width="49" height="36" viewBox="0 0 49 36" fill="none" xmlns="http://www.w3.org/2000/svg">
<path d="M11.8047 35.4688C8.3672 35.4688 5.57031 34.3438 3.41406 32.0938C1.25781 29.8281 0.179688 26.8047 0.179688 23.0234V22.2266C0.179688 19.7109 0.656248 17.4688 1.60938 15.5C2.57812 13.5156 3.92188 11.9688 5.64062 10.8594C7.375 9.73441 9.25 9.17191 11.2656 9.17191C14.5625 9.17191 17.125 10.2578 18.9531 12.4297C20.7812 14.6016 21.6953 17.7109 21.6953 21.7578V23.5625H4.51562C4.57812 26.0625 5.30469 28.0859 6.69531 29.6328C8.1016 31.1641 9.8828 31.9297 12.0391 31.9297C13.5703 31.9297 14.8672 31.6172 15.9297 30.9922C16.9922 30.3672 17.9219 29.5391 18.7188 28.5078L21.3672 30.5703C19.2422 33.8359 16.0547 35.4688 11.8047 35.4688ZM11.2656 12.7344C9.5156 12.7344 8.0469 13.375 6.85938 14.6562C5.67188 15.9219 4.9375 17.7031 4.65625 20H17.3594V19.6719C17.2344 17.4688 16.6406 15.7656 15.5781 14.5625C14.5156 13.3438 13.0781 12.7344 11.2656 12.7344Z" fill="#0D6EFD"/>
<path d="M33.5312 29.3516H48.4609V35H26.5V0.875H33.5312V29.3516Z" fill="#55BEFF"/>
</svg>
