<svg width="198" height="47" viewBox="0 0 198 47" fill="none" xmlns="http://www.w3.org/2000/svg">
<path d="M11.8047 36.4688C8.3672 36.4688 5.57031 35.3438 3.41406 33.0938C1.25781 30.8281 0.179688 27.8047 0.179688 24.0234V23.2266C0.179688 20.7109 0.656248 18.4688 1.60938 16.5C2.57812 14.5156 3.92188 12.9688 5.64062 11.8594C7.375 10.7344 9.25 10.1719 11.2656 10.1719C14.5625 10.1719 17.125 11.2578 18.9531 13.4297C20.7812 15.6016 21.6953 18.7109 21.6953 22.7578V24.5625H4.51562C4.57812 27.0625 5.30469 29.0859 6.69531 30.6328C8.1016 32.1641 9.8828 32.9297 12.0391 32.9297C13.5703 32.9297 14.8672 32.6172 15.9297 31.9922C16.9922 31.3672 17.9219 30.5391 18.7188 29.5078L21.3672 31.5703C19.2422 34.8359 16.0547 36.4688 11.8047 36.4688ZM11.2656 13.7344C9.5156 13.7344 8.0469 14.375 6.85938 15.6562C5.67188 16.9219 4.9375 18.7031 4.65625 21H17.3594V20.6719C17.2344 18.4688 16.6406 16.7656 15.5781 15.5625C14.5156 14.3438 13.0781 13.7344 11.2656 13.7344Z" fill="#0D6EFD"/>
<path d="M33.5312 30.3516H48.4609V36H26.5V1.875H33.5312V30.3516ZM66.7656 36C66.4531 35.3906 66.2266 34.6328 66.0859 33.7266C64.4453 35.5547 62.3125 36.4688 59.6875 36.4688C57.2031 36.4688 55.1406 35.75 53.5 34.3125C51.875 32.875 51.0625 31.0625 51.0625 28.875C51.0625 26.1875 52.0547 24.125 54.0391 22.6875C56.0391 21.25 58.9219 20.5234 62.6875 20.5078H65.8047V19.0547C65.8047 17.8828 65.5 16.9453 64.8906 16.2422C64.2969 15.5391 63.3516 15.1875 62.0547 15.1875C60.9141 15.1875 60.0156 15.4609 59.3594 16.0078C58.7188 16.5547 58.3984 17.3047 58.3984 18.2578H51.625C51.625 16.7891 52.0781 15.4297 52.9844 14.1797C53.8906 12.9297 55.1719 11.9531 56.8281 11.25C58.4844 10.5312 60.3438 10.1719 62.4062 10.1719C65.5312 10.1719 68.0078 10.9609 69.8359 12.5391C71.6797 14.1016 72.6016 16.3047 72.6016 19.1484V30.1406C72.6172 32.5469 72.9531 34.3672 73.6094 35.6016V36H66.7656ZM61.1641 31.2891C62.1641 31.2891 63.0859 31.0703 63.9297 30.6328C64.7734 30.1797 65.3984 29.5781 65.8047 28.8281V24.4688H63.2734C59.8828 24.4688 58.0781 25.6406 57.8594 27.9844L57.8359 28.3828C57.8359 29.2266 58.1328 29.9219 58.7266 30.4688C59.3203 31.0156 60.1328 31.2891 61.1641 31.2891ZM92.9922 33.4219C91.3203 35.4531 89.0078 36.4688 86.0547 36.4688C83.3359 36.4688 81.2578 35.6875 79.8203 34.125C78.3984 32.5625 77.6719 30.2734 77.6406 27.2578V10.6406H84.4141V27.0234C84.4141 29.6641 85.6172 30.9844 88.0234 30.9844C90.3203 30.9844 91.8984 30.1875 92.7578 28.5938V10.6406H99.555V36H93.1797L92.9922 33.4219ZM110.898 10.6406L111.109 13.5703C112.922 11.3047 115.352 10.1719 118.398 10.1719C121.086 10.1719 123.086 10.9609 124.398 12.5391C125.711 14.1172 126.383 16.4766 126.414 19.6172V36H119.641V19.7812C119.641 18.3438 119.328 17.3047 118.703 16.6641C118.078 16.0078 117.039 15.6797 115.586 15.6797C113.68 15.6797 112.25 16.4922 111.297 18.1172V36H104.523V10.6406H110.898ZM130.516 23.1328C130.516 19.1797 131.398 16.0312 133.164 13.6875C134.945 11.3438 137.375 10.1719 140.453 10.1719C142.922 10.1719 144.961 11.0938 146.57 12.9375V0H153.367V36H147.25L146.922 33.3047C145.234 35.4141 143.062 36.4688 140.406 36.4688C137.422 36.4688 135.023 35.2969 133.211 32.9531C131.414 30.5938 130.516 27.3203 130.516 23.1328ZM137.289 23.625C137.289 26 137.703 27.8203 138.531 29.0859C139.359 30.3516 140.562 30.9844 142.141 30.9844C144.234 30.9844 145.711 30.1016 146.57 28.3359V18.3281C145.727 16.5625 144.266 15.6797 142.188 15.6797C138.922 15.6797 137.289 18.3281 137.289 23.625ZM172.867 16.9922C171.945 16.8672 171.133 16.8047 170.43 16.8047C167.867 16.8047 166.188 17.6719 165.391 19.4062V36H158.617V10.6406H165.016L165.203 13.6641C166.562 11.3359 168.445 10.1719 170.852 10.1719C171.602 10.1719 172.305 10.2734 172.961 10.4766L172.867 16.9922ZM186.039 26.4141L190.727 10.6406H197.992L187.797 39.9375L187.234 41.2734C185.719 44.5859 183.219 46.2422 179.734 46.2422C178.75 46.2422 177.75 46.0938 176.734 45.7969V40.6641L177.766 40.6875C179.047 40.6875 180 40.4922 180.625 40.1016C181.266 39.7109 181.766 39.0625 182.125 38.1562L182.922 36.0703L174.039 10.6406H181.328L186.039 26.4141Z" fill="#55BEFF"/>
</svg>
